<?xml version="1.0" encoding="utf-8"?>
<!-- Generator: Adobe Illustrator 27.3.1, SVG Export Plug-In . SVG Version: 6.00 Build 0)  -->
<svg version="1.1" id="Layer_1" xmlns="http://www.w3.org/2000/svg" xmlns:xlink="http://www.w3.org/1999/xlink" x="0px" y="0px"
	 viewBox="0 0 1080 1080" style="enable-background:new 0 0 1080 1080;" xml:space="preserve">
<style type="text/css">
	.st0{fill:#5CDB95;}
	.st1{fill:#EDF5E1;}
</style>
<g>
	<path class="st0" d="M830.1,814.5c0,73.6-29.7,134-89,181.2c-58.4,46.3-143.6,69.4-255.6,69.4c-98.9,0-212.8-24.1-341.8-72.4
		c0-71.7-1.9-122.7-5.6-152.9c-2.9-28.3-4.2-58.5-4.2-90.6c0-17.9,0.9-44.8,2.8-80.6h21.2C186,756.4,232.6,829.5,297.5,888
		c65.9,58.5,136.5,87.7,211.9,87.7c59.3,0,110.6-15.1,154-45.3c41.4-30.2,62.1-65.6,62.1-106.1c0-43.3-21.2-78.3-63.6-104.7
		c-43.3-26.4-122.4-51.4-237.3-75C311.7,620.1,227.4,584,171.9,536.4c-55.5-47.6-83.3-107.3-83.3-179c0-55.7,18.3-108,55-157
		c-3.8,23.6-5.6,45.3-5.6,65.1c0,47.1,14.1,91.5,42.3,133c26.3,39.6,63.5,69.8,111.5,90.6c47.1,20.8,126.1,44.8,237.2,72.2
		c105.5,25.5,182.2,56.6,230.3,93.4C806.6,691.3,830.1,744.7,830.1,814.5z"/>
	<path class="st1" d="M912.2,897.9c7.6-34.9,11.3-64.5,11.3-89c0-72.5-24.5-138.9-73.5-199.2C802,550.4,689.4,500,512.3,458.5
		c-104.5-24.5-177-51.8-217.5-82c-41.5-31.1-62.2-76.8-62.2-137.1c0-67.8,30.6-122.4,91.8-163.9c60.3-40.5,149.3-60.8,267.1-60.8
		c112.1,0,227,22.8,344.7,68.2c-1.9,22.6-2.8,35.3-2.8,38.1c0,34.9,1.9,71.6,5.7,110.2c2.8,33.9,4.3,77.3,4.3,130h-19.8
		c-33-86.7-85.8-152.2-158.4-196.5C693.5,121.5,621,99.8,547.5,99.8c-57.5,0-108.3,11.4-152.6,34c-43.3,23.6-65,57.1-65,100.4
		c0,33.1,16,58.5,48,76.4c30.1,17,89.4,34.9,178,53.8c182.8,38.7,301.1,88.2,354.8,148.6c53.7,60.4,80.6,124.1,80.6,191
		C991.4,761.6,965,826.2,912.2,897.9z"/>
</g>
</svg>
